<svg width="21" height="21" viewBox="0 0 21 21" fill="none" xmlns="http://www.w3.org/2000/svg">
<path d="M17.7188 15.0938H6.5625L3.28125 1.3125H1.3125M3.9375 3.9375H19.6875L17.7188 12.4688H5.90625L3.9375 3.9375Z" stroke="white" stroke-linecap="round" stroke-linejoin="round"/>
<path d="M16.4062 19.0312C17.1311 19.0312 17.7188 18.4436 17.7188 17.7188C17.7188 16.9939 17.1311 16.4062 16.4062 16.4062C15.6814 16.4062 15.0938 16.9939 15.0938 17.7188C15.0938 18.4436 15.6814 19.0312 16.4062 19.0312Z" stroke="white" stroke-linecap="round" stroke-linejoin="round"/>
<path d="M7.875 19.0312C8.59987 19.0312 9.1875 18.4436 9.1875 17.7188C9.1875 16.9939 8.59987 16.4062 7.875 16.4062C7.15013 16.4062 6.5625 16.9939 6.5625 17.7188C6.5625 18.4436 7.15013 19.0312 7.875 19.0312Z" stroke="white" stroke-linecap="round" stroke-linejoin="round"/>
</svg>
